<svg width="310" height="68" viewBox="0 0 310 68" fill="none" xmlns="http://www.w3.org/2000/svg">
<path d="M74.5 0.5H229.5C231.985 0.5 234 2.51472 234 5V52C234 54.4853 231.985 56.5 229.5 56.5H74.5C72.0147 56.5 70 54.4853 70 52V5C70 2.51472 72.0147 0.5 74.5 0.5Z" fill="#FFF2DD" stroke="#3D2222"/>
<path d="M70.5 5C70.5 2.79086 72.2909 1 74.5 1H98.5C100.709 1 102.5 2.79086 102.5 5V52C102.5 54.2091 100.709 56 98.5 56H74.5C72.2909 56 70.5 54.2091 70.5 52V5Z" fill="#FFDB99"/>
<path d="M92 1H124L121.5 10.4144L126 19.3333L121.5 28.7477L126 38.1622L121.5 48.0721L124 56H92V1Z" fill="#FFDB99"/>
<path d="M99.6705 32L96.2841 20.3636H99.392L101.148 27.9886H101.244L103.25 20.3636H105.784L107.79 28.0057H107.886L109.648 20.3636H112.75L109.369 32H106.659L104.562 24.9432H104.472L102.375 32H99.6705ZM117.023 32.1648C116.11 32.1648 115.322 31.9848 114.659 31.625C114 31.2614 113.492 30.7443 113.136 30.0739C112.784 29.3996 112.608 28.5985 112.608 27.6705C112.608 26.7689 112.786 25.9811 113.142 25.3068C113.498 24.6288 114 24.1023 114.648 23.7273C115.295 23.3485 116.059 23.1591 116.938 23.1591C117.559 23.1591 118.127 23.2557 118.642 23.4489C119.157 23.642 119.602 23.928 119.977 24.3068C120.352 24.6856 120.644 25.1534 120.852 25.7102C121.061 26.2633 121.165 26.8977 121.165 27.6136V28.3068H113.58V26.6932H118.58C118.576 26.3977 118.506 26.1345 118.369 25.9034C118.233 25.6723 118.045 25.4924 117.807 25.3636C117.572 25.2311 117.301 25.1648 116.994 25.1648C116.684 25.1648 116.405 25.2348 116.159 25.375C115.913 25.5114 115.718 25.6989 115.574 25.9375C115.43 26.1723 115.354 26.4394 115.347 26.7386V28.3807C115.347 28.7367 115.417 29.0492 115.557 29.3182C115.697 29.5833 115.896 29.7898 116.153 29.9375C116.411 30.0852 116.718 30.1591 117.074 30.1591C117.32 30.1591 117.544 30.125 117.744 30.0568C117.945 29.9886 118.117 29.8883 118.261 29.7557C118.405 29.6231 118.513 29.4602 118.585 29.267L121.136 29.3409C121.03 29.9129 120.797 30.411 120.438 30.8352C120.081 31.2557 119.614 31.5833 119.034 31.8182C118.455 32.0492 117.784 32.1648 117.023 32.1648ZM126.663 32.1648C125.75 32.1648 124.963 31.9848 124.3 31.625C123.641 31.2614 123.133 30.7443 122.777 30.0739C122.425 29.3996 122.249 28.5985 122.249 27.6705C122.249 26.7689 122.427 25.9811 122.783 25.3068C123.139 24.6288 123.641 24.1023 124.288 23.7273C124.936 23.3485 125.699 23.1591 126.578 23.1591C127.199 23.1591 127.768 23.2557 128.283 23.4489C128.798 23.642 129.243 23.928 129.618 24.3068C129.993 24.6856 130.285 25.1534 130.493 25.7102C130.701 26.2633 130.805 26.8977 130.805 27.6136V28.3068H123.22V26.6932H128.22C128.216 26.3977 128.146 26.1345 128.01 25.9034C127.874 25.6723 127.686 25.4924 127.447 25.3636C127.213 25.2311 126.942 25.1648 126.635 25.1648C126.324 25.1648 126.046 25.2348 125.8 25.375C125.554 25.5114 125.358 25.6989 125.214 25.9375C125.071 26.1723 124.995 26.4394 124.987 26.7386V28.3807C124.987 28.7367 125.057 29.0492 125.197 29.3182C125.338 29.5833 125.536 29.7898 125.794 29.9375C126.052 30.0852 126.358 30.1591 126.714 30.1591C126.961 30.1591 127.184 30.125 127.385 30.0568C127.586 29.9886 127.758 29.8883 127.902 29.7557C128.046 29.6231 128.154 29.4602 128.226 29.267L130.777 29.3409C130.671 29.9129 130.438 30.411 130.078 30.8352C129.722 31.2557 129.254 31.5833 128.675 31.8182C128.095 32.0492 127.425 32.1648 126.663 32.1648ZM134.73 29.7102L134.741 26.3977H135.128L137.582 23.2727H140.73L137.082 27.75H136.349L134.73 29.7102ZM132.224 32V20.3636H135.003V32H132.224ZM137.645 32L135.361 28.375L137.19 26.4034L140.855 32H137.645ZM144.503 20.3636V32H141.724V20.3636H144.503ZM147.97 35.2727C147.637 35.2727 147.322 35.2462 147.027 35.1932C146.732 35.1439 146.478 35.0777 146.266 34.9943L146.879 32.9773C147.152 33.0682 147.398 33.1212 147.618 33.1364C147.841 33.1515 148.033 33.1155 148.192 33.0284C148.355 32.9451 148.48 32.7955 148.567 32.5795L148.675 32.3182L145.572 23.2727H148.482L150.089 29.5H150.18L151.811 23.2727H154.737L151.447 32.8352C151.288 33.3125 151.063 33.733 150.771 34.0966C150.483 34.464 150.11 34.7519 149.652 34.9602C149.197 35.1686 148.637 35.2727 147.97 35.2727ZM169.803 24.5795H166.962C166.924 24.2879 166.846 24.0246 166.729 23.7898C166.611 23.5549 166.456 23.3542 166.263 23.1875C166.07 23.0208 165.84 22.8939 165.575 22.8068C165.314 22.7159 165.024 22.6705 164.706 22.6705C164.142 22.6705 163.655 22.8087 163.246 23.0852C162.84 23.3617 162.528 23.7614 162.308 24.2841C162.092 24.8068 161.984 25.4394 161.984 26.1818C161.984 26.9545 162.094 27.6023 162.314 28.125C162.537 28.6439 162.85 29.036 163.251 29.3011C163.657 29.5625 164.136 29.6932 164.689 29.6932C165 29.6932 165.282 29.6534 165.536 29.5739C165.793 29.4943 166.018 29.3788 166.212 29.2273C166.409 29.072 166.57 28.8845 166.695 28.6648C166.823 28.4413 166.912 28.1894 166.962 27.9091L169.803 27.9261C169.753 28.4413 169.604 28.9489 169.354 29.4489C169.107 29.9489 168.768 30.4053 168.337 30.8182C167.905 31.2273 167.378 31.553 166.757 31.7955C166.14 32.0379 165.431 32.1591 164.632 32.1591C163.579 32.1591 162.636 31.928 161.803 31.4659C160.973 31 160.318 30.322 159.837 29.4318C159.356 28.5417 159.115 27.4583 159.115 26.1818C159.115 24.9015 159.359 23.8163 159.848 22.9261C160.337 22.036 160.998 21.3598 161.831 20.8977C162.664 20.4356 163.598 20.2045 164.632 20.2045C165.337 20.2045 165.988 20.303 166.587 20.5C167.185 20.6932 167.712 20.9773 168.166 21.3523C168.621 21.7235 168.99 22.1799 169.274 22.7216C169.558 23.2633 169.734 23.8826 169.803 24.5795ZM174.19 27.0227V32H171.412V20.3636H174.099V24.875H174.196C174.393 24.3371 174.715 23.9167 175.162 23.6136C175.613 23.3106 176.164 23.1591 176.815 23.1591C177.429 23.1591 177.963 23.2955 178.418 23.5682C178.872 23.8371 179.224 24.2178 179.474 24.7102C179.728 25.2027 179.853 25.7784 179.849 26.4375V32H177.071V26.983C177.075 26.4981 176.954 26.1193 176.707 25.8466C176.461 25.5739 176.115 25.4375 175.668 25.4375C175.376 25.4375 175.118 25.5019 174.895 25.6307C174.675 25.7557 174.503 25.9356 174.378 26.1705C174.257 26.4053 174.194 26.6894 174.19 27.0227ZM184.044 32.1477C183.487 32.1477 182.993 32.0549 182.561 31.8693C182.133 31.6799 181.794 31.3958 181.544 31.017C181.298 30.6345 181.175 30.1553 181.175 29.5795C181.175 29.0947 181.26 28.6856 181.43 28.3523C181.601 28.0189 181.836 27.7481 182.135 27.5398C182.434 27.3314 182.779 27.1742 183.169 27.0682C183.559 26.9583 183.976 26.8845 184.419 26.8466C184.915 26.8011 185.315 26.7538 185.618 26.7045C185.921 26.6515 186.141 26.5777 186.277 26.483C186.417 26.3845 186.487 26.2462 186.487 26.0682V26.0398C186.487 25.7481 186.387 25.5227 186.186 25.3636C185.985 25.2045 185.714 25.125 185.374 25.125C185.006 25.125 184.711 25.2045 184.487 25.3636C184.264 25.5227 184.122 25.7424 184.061 26.0227L181.499 25.9318C181.574 25.4015 181.769 24.928 182.084 24.5114C182.402 24.0909 182.838 23.7614 183.391 23.5227C183.947 23.2803 184.616 23.1591 185.396 23.1591C185.953 23.1591 186.466 23.2254 186.936 23.358C187.406 23.4867 187.815 23.6761 188.163 23.9261C188.512 24.1723 188.781 24.4754 188.97 24.8352C189.163 25.1951 189.26 25.6061 189.26 26.0682V32H186.646V30.7841H186.578C186.423 31.0795 186.224 31.3295 185.982 31.5341C185.743 31.7386 185.461 31.892 185.135 31.9943C184.813 32.0966 184.449 32.1477 184.044 32.1477ZM184.902 30.3295C185.201 30.3295 185.47 30.2689 185.709 30.1477C185.951 30.0265 186.144 29.8598 186.288 29.6477C186.432 29.4318 186.504 29.1818 186.504 28.8977V28.0682C186.425 28.1098 186.328 28.1477 186.214 28.1818C186.105 28.2159 185.983 28.2481 185.851 28.2784C185.718 28.3087 185.582 28.3352 185.442 28.358C185.302 28.3807 185.167 28.4015 185.038 28.4205C184.777 28.4621 184.554 28.5265 184.368 28.6136C184.186 28.7008 184.046 28.8144 183.947 28.9545C183.853 29.0909 183.805 29.2538 183.805 29.4432C183.805 29.7311 183.908 29.9508 184.112 30.1023C184.321 30.2538 184.584 30.3295 184.902 30.3295ZM190.959 32V23.2727H193.658V24.8636H193.749C193.908 24.2879 194.167 23.8598 194.527 23.5795C194.887 23.2955 195.305 23.1534 195.783 23.1534C195.911 23.1534 196.044 23.1629 196.18 23.1818C196.317 23.197 196.444 23.2216 196.561 23.2557V25.6705C196.429 25.625 196.254 25.589 196.038 25.5625C195.826 25.536 195.637 25.5227 195.47 25.5227C195.141 25.5227 194.843 25.5966 194.578 25.7443C194.317 25.8883 194.11 26.0909 193.959 26.3523C193.811 26.6098 193.737 26.9129 193.737 27.2614V32H190.959ZM203.026 23.2727V25.3182H197.52V23.2727H203.026ZM198.673 21.1818H201.452V29.2557C201.452 29.4261 201.478 29.5644 201.531 29.6705C201.588 29.7727 201.67 29.8466 201.776 29.892C201.882 29.9337 202.009 29.9545 202.156 29.9545C202.262 29.9545 202.374 29.9451 202.491 29.9261C202.613 29.9034 202.704 29.8845 202.764 29.8693L203.185 31.875C203.052 31.9129 202.865 31.9602 202.622 32.017C202.384 32.0739 202.098 32.1098 201.764 32.125C201.113 32.1553 200.554 32.0795 200.088 31.8977C199.626 31.7121 199.272 31.4242 199.026 31.0341C198.783 30.6439 198.666 30.1534 198.673 29.5625V21.1818Z" fill="#3D2222"/>
<path d="M37.8681 29.5275C38.4487 28.0535 40.431 27.8074 41.3542 29.0948L44.351 33.2733C44.7236 33.7928 45.3221 34.1029 45.9614 34.1076L51.1564 34.1463C52.8723 34.1591 53.7765 36.1848 52.6402 37.4706L49.5798 40.9337C49.1127 41.4622 48.9586 42.1977 49.1741 42.8693L50.5735 47.23C51.0738 48.7889 49.5914 50.2556 48.0379 49.7389L42.7972 47.9956C42.2252 47.8053 41.598 47.8832 41.0898 48.2075L36.4344 51.1791C35.0544 52.06 33.2584 51.0002 33.3624 49.3663L33.6532 44.7958C33.698 44.0919 33.3687 43.4164 32.7866 43.0181L28.9724 40.4084C27.5563 39.4394 27.9377 37.254 29.5985 36.8222L34.6264 35.5146C35.2451 35.3537 35.7496 34.9067 35.9839 34.3119L37.8681 29.5275Z" fill="#FFDB99"/>
<path d="M265.836 30.5212C266.92 29.3665 268.853 29.8711 269.235 31.4087L270.473 36.3993C270.627 37.0198 271.069 37.5293 271.661 37.7702L275.63 39.3847C277.338 40.0796 277.276 42.5198 275.534 43.1261L272.075 44.3301C271.264 44.6122 270.724 45.38 270.732 46.2383L270.781 51.2457C270.797 52.9554 268.8 53.8962 267.492 52.7947L263.584 49.5027C263.123 49.1143 262.511 48.9546 261.919 49.068L256.495 50.1069C254.887 50.4148 253.61 48.7658 254.311 47.2863L256.272 43.1475C256.574 42.5101 256.518 41.7608 256.125 41.1754L253.546 37.3399C252.589 35.9158 253.752 34.0266 255.454 34.2396L260.609 34.8846C261.244 34.9639 261.878 34.7353 262.315 34.2693L265.836 30.5212Z" fill="#FFDB99"/>
<path d="M296.533 46.882C297.618 45.6169 299.684 46.1563 300.012 47.7904L300.443 49.9373C300.573 50.5849 301.015 51.1265 301.623 51.3846L303.656 52.248C305.176 52.8929 305.304 54.9963 303.875 55.8212L301.912 56.954C301.347 57.2802 300.976 57.8614 300.919 58.5113L300.722 60.7569C300.576 62.411 298.595 63.1779 297.374 62.0527L295.784 60.5875C295.295 60.1366 294.613 59.9586 293.966 60.1127L291.862 60.6135C290.247 60.9981 288.894 59.3605 289.575 57.8465L290.501 55.7912C290.769 55.1964 290.73 54.5082 290.397 53.9474L289.238 51.9995C288.394 50.5811 289.535 48.809 291.175 48.989L293.371 49.2301C294.028 49.3022 294.678 49.0455 295.108 48.5442L296.533 46.882Z" fill="#FFDB99"/>
<path d="M283.004 7.02162C284.09 5.82887 286.068 6.34542 286.432 7.91658L286.582 8.56718C286.728 9.19738 287.17 9.71809 287.768 9.96482L288.22 10.1514C289.786 10.7974 289.89 12.9753 288.393 13.7678L288.164 13.8895C287.556 14.211 287.157 14.8217 287.105 15.5068L287.077 15.8753C286.954 17.5153 285.014 18.3135 283.772 17.2354L283.212 16.749C282.741 16.3402 282.106 16.1745 281.495 16.3009L280.769 16.4513C279.158 16.7846 277.856 15.1398 278.55 13.6488L278.706 13.3138C278.996 12.6909 278.946 11.9627 278.573 11.3854L278.432 11.1669C277.514 9.74384 278.67 7.89494 280.351 8.09681L280.837 8.15513C281.479 8.23224 282.119 7.99394 282.555 7.51552L283.004 7.02162Z" fill="#FFDB99"/>
<path d="M8.09046 51.123C8.62433 49.5315 10.763 49.266 11.6697 50.6787L12.3278 51.704C12.6862 52.2623 13.2979 52.6065 13.9611 52.6231L15.2457 52.6551C16.8858 52.6961 17.7817 54.5855 16.7754 55.8812L15.9137 56.9908C15.5182 57.5 15.3925 58.1687 15.5761 58.7868L15.9641 60.0937C16.4378 61.6892 14.8692 63.1315 13.319 62.5258L12.2292 62.1C11.6004 61.8543 10.89 61.9425 10.3402 62.3345L9.38764 63.0138C8.03253 63.9801 6.1589 62.965 6.22819 61.3021L6.28494 59.94C6.31179 59.2958 6.02641 58.6782 5.51843 58.2811L4.41165 57.4159C3.11913 56.4055 3.5259 54.3543 5.10621 53.9137L6.34402 53.5685C6.98298 53.3903 7.49202 52.907 7.70298 52.2781L8.09046 51.123Z" fill="#FFDB99"/>
<path d="M9.92859 12.6237C10.4936 11.108 12.5307 10.8551 13.449 12.1868L13.6922 12.5393C14.0602 13.0728 14.6639 13.395 15.312 13.4036L15.5714 13.4071C17.261 13.4295 18.163 15.4074 17.0723 16.6979L17.0333 16.744C16.5918 17.2664 16.4478 17.9782 16.6517 18.631L16.7006 18.7877C17.1911 20.3589 15.6796 21.8169 14.1271 21.2701L13.6676 21.1083C13.0759 20.8999 12.4207 20.9813 11.8979 21.328L11.4918 21.5972C10.1201 22.5069 8.29806 21.4627 8.38955 19.8193L8.39867 19.6554C8.43669 18.9725 8.1231 18.3176 7.56728 17.919L7.51821 17.8838C6.14505 16.8991 6.53619 14.7607 8.169 14.3259L8.4197 14.2591C9.04601 14.0923 9.55266 13.6323 9.77903 13.025L9.92859 12.6237Z" fill="#FFDB99"/>
</svg>
